HIERARCHY
ROOT Hips
{
	OFFSET -3.958830 18.904000 13.208200
	CHANNELS 6 Xposition Yposition Zposition Zrotation Yrotation Xrotation 
	JOINT LHipJoint
	{
		OFFSET 0.000000 0.000000 0.000000
		CHANNELS 3 Zrotation Yrotation Xrotation
		JOINT LeftUpLeg
		{
			OFFSET 1.800000 -1.400000 0.085000
			CHANNELS 3 Zrotation Yrotation Xrotation
			JOINT LeftLeg
			{
				OFFSET 2.215000 -6.000000 0.000000
				CHANNELS 3 Zrotation Yrotation Xrotation
				JOINT LeftFoot
				{
					OFFSET 2.500000 -6.900000 0.000000
					CHANNELS 3 Zrotation Yrotation Xrotation
					JOINT LeftToeBase
					{
						OFFSET 0.200000 -0.500000 1.950000
						CHANNELS 3 Zrotation Yrotation Xrotation
						End Site
						{
							OFFSET 0.000000 0.000000 0.000000
						}
					}
				}
			}
		}
	}
	JOINT RHipJoint
	{
		OFFSET 0.000000 0.000000 0.000000
		CHANNELS 3 Zrotation Yrotation Xrotation
		JOINT RightUpLeg
		{
			OFFSET -1.800000 -1.400000 0.085000
			CHANNELS 3 Zrotation Yrotation Xrotation
			JOINT RightLeg
			{
				OFFSET -2.215000 -6.000000 0.000000
				CHANNELS 3 Zrotation Yrotation Xrotation
				JOINT RightFoot
				{
					OFFSET -2.500000 -6.900000 0.000000
					CHANNELS 3 Zrotation Yrotation Xrotation
					JOINT RightToeBase
					{
						OFFSET -0.200000 -0.500000 1.950000
						CHANNELS 3 Zrotation Yrotation Xrotation
						End Site
						{
							OFFSET 0.000000 0.000000 0.000000
						}
					}
				}
			}
		}
	}
	JOINT LowerBack
	{
		OFFSET 0.000000 0.000000 0.000000
		CHANNELS 3 Zrotation Yrotation Xrotation
		JOINT Spine
		{
			OFFSET -0.087000 1.940000 -0.288900
			CHANNELS 3 Zrotation Yrotation Xrotation
			JOINT Spine1
			{
				OFFSET 0.000000 1.950000 0.060000
				CHANNELS 3 Zrotation Yrotation Xrotation
				JOINT Neck
				{
					OFFSET 0.000000 0.000000 0.000000
					CHANNELS 3 Zrotation Yrotation Xrotation
					JOINT Neck1
					{
						OFFSET 0.000000 1.600000 0.340000
						CHANNELS 3 Zrotation Yrotation Xrotation
						JOINT Head
						{
							OFFSET 0.000000 1.667000 -0.240000
							CHANNELS 3 Zrotation Yrotation Xrotation
							End Site
							{
								OFFSET 0.000000 0.000000 0.000000
							}
						}
					}
				}
				JOINT LeftShoulder
				{
					OFFSET 0.000000 0.000000 0.000000
					CHANNELS 3 Zrotation Yrotation Xrotation
					JOINT LeftArm
					{
						OFFSET 2.700000 1.550000 -0.730000
						CHANNELS 3 Zrotation Yrotation Xrotation
						JOINT LeftForeArm
						{
							OFFSET 5.450000 0.000000 0.000000
							CHANNELS 3 Zrotation Yrotation Xrotation
							JOINT LeftHand
							{
								OFFSET 3.450000 0.000000 0.000000
								CHANNELS 3 Zrotation Yrotation Xrotation
								JOINT LeftHandIndex1
								{
									OFFSET 0.750000 0.000000 0.000000
									CHANNELS 3 Zrotation Yrotation Xrotation
									End Site
									{
										OFFSET 0.000000 0.000000 0.000000
									}
								}
							}
						}
					}
				}
				JOINT RightShoulder
				{
					OFFSET 0.000000 0.000000 0.000000
					CHANNELS 3 Zrotation Yrotation Xrotation
					JOINT RightArm
					{
						OFFSET -2.700000 1.550000 -0.730000
						CHANNELS 3 Zrotation Yrotation Xrotation
						JOINT RightForeArm
						{
							OFFSET -5.450000 0.000000 0.000000
							CHANNELS 3 Zrotation Yrotation Xrotation
							JOINT RightHand
							{
								OFFSET -3.450000 0.000000 0.000000
								CHANNELS 3 Zrotation Yrotation Xrotation
								JOINT RightHandIndex1
								{
									OFFSET -0.750000 0.000000 0.000000
									CHANNELS 3 Zrotation Yrotation Xrotation
									End Site
									{
										OFFSET 0.000000 0.000000 0.000000
									}
								}
							}
						}
					}
				}
			}
		}
	}
}
MOTION
Frames: 14
Frame Time: 0.016667
-14.797190 16.917970 1.970820 -3.211713 24.501850 -1.605917 -14.909668 12.082915 3.590844 12.659392 -0.495189 -28.314658 -1.526797 2.480339 -3.473661 -0.817932 2.493038 3.474758 0.713620 0.535140 0.716640 18.634419 -10.358198 3.440398 2.596260 -3.389400 4.985184 10.868017 -4.299646 -2.207631 -0.775875 -4.336474 2.671478 0.424930 -0.259360 -0.257850 -4.940838 -0.907268 -8.337129 26.518431 1.950786 12.826683 -13.187690 8.649517 -8.810019 0.166290 -9.560970 -11.408611 -19.921447 14.109099 35.008268 10.694830 6.357720 -16.152690 -6.970025 -1.100090 1.802258 2.023537 2.926120 0.507413 14.258534 -12.472100 -0.496912 -3.193842 2.988745 0.728400 -0.455980 0.132280 0.011670 5.799121 11.784579 7.153550 -3.805136 12.363987 -1.371004 -13.516004 -4.462795 -0.215618 3.067472 -1.206436 -0.336560 0.175500 -0.301080 -0.274580 
-14.786600 16.912240 1.978950 -3.046147 24.913498 -1.292659 -14.893276 12.031552 3.558687 12.102943 -0.649095 -28.543905 -1.208078 2.407476 -3.434420 -0.837201 2.410448 3.549584 0.732410 0.576410 0.737190 18.657246 -10.421113 3.435916 2.607759 -3.339052 4.728910 10.640541 -4.241284 -2.151106 -0.758896 -4.332256 2.702640 0.465160 -0.230610 -0.292520 -5.011968 -0.711179 -8.301250 26.521026 2.107347 12.470498 -13.511515 8.653859 -8.724177 0.088091 -9.455540 -10.809715 -19.251737 13.137632 33.808625 9.796540 5.899540 -16.299400 -7.440142 -0.912259 1.206932 3.905733 1.846149 0.608996 12.005969 -12.079863 -0.323636 -3.190816 2.938133 0.704960 -0.430140 0.117830 0.036120 6.223772 11.426657 6.940745 -4.675192 12.207263 -1.548333 -14.605509 -5.260277 -0.193253 3.069022 -1.243397 -0.363120 0.224840 -0.344920 -0.263120 
-14.778040 16.915130 1.986430 -3.044992 25.165777 -1.337984 -14.891042 12.025821 3.542957 11.918064 -0.679380 -28.476781 -1.096619 2.376479 -3.463646 -0.826560 2.347755 3.573800 0.769870 0.633000 0.768820 18.661856 -10.438069 3.436803 2.782836 -3.432635 4.799626 10.399917 -4.211546 -2.128800 -0.771091 -4.313085 2.712846 0.493030 -0.260720 -0.310490 -5.031909 -0.667978 -8.286581 26.500536 2.082660 12.413158 -13.365644 8.575294 -8.613531 -0.006514 -9.527766 -10.602272 -19.343987 12.735072 33.556566 9.731920 5.647940 -17.263150 -7.322632 -0.631696 1.065312 3.811873 1.573539 0.574249 11.528794 -12.301551 -0.269409 -3.147614 2.934729 0.705100 -0.450800 0.140830 0.045510 6.219954 11.187200 6.788329 -4.663837 12.387796 -1.577312 -15.135791 -5.183409 -0.206669 3.079915 -1.259935 -0.351590 0.229110 -0.388350 -0.257310 
-14.769380 16.916140 1.990250 -2.998440 25.357122 -1.361275 -14.891338 12.018957 3.543668 11.839661 -0.691162 -28.494916 -1.142329 2.369827 -3.503582 -0.820789 2.313092 3.591943 0.776200 0.663600 0.765700 18.662533 -10.445871 3.426473 2.685323 -3.427743 4.774186 10.428382 -4.230376 -1.972498 -0.771438 -4.309242 2.729583 0.508110 -0.268750 -0.332430 -5.039309 -0.653431 -8.281803 26.446652 2.069722 12.335841 -13.325003 8.581677 -8.290052 0.076395 -9.588104 -10.689917 -19.526444 12.296129 33.499741 9.569070 5.327090 -17.872230 -7.181508 -0.697851 1.119587 3.570510 1.072598 0.457310 11.996057 -11.124085 -0.283743 -3.143550 2.887046 0.706240 -0.457230 0.151380 0.053770 5.936346 11.310641 6.870696 -4.627503 12.165489 -1.831978 -16.548846 -6.331739 -0.020846 3.104697 -1.277234 -0.354570 0.244460 -0.410760 -0.247780 
-14.758910 16.910990 2.001200 -2.756466 25.749783 -1.172900 -14.892415 11.988565 3.544503 11.645872 -0.785607 -28.658541 -1.429936 2.374381 -3.324016 -0.810852 2.291249 3.602517 0.771470 0.676940 0.737000 18.661771 -10.460916 3.432909 2.384095 -3.366282 4.832519 10.776624 -4.244151 -2.102436 -0.762708 -4.370877 2.723061 0.519240 -0.253840 -0.324960 -5.048742 -0.583910 -8.288524 26.007372 2.181202 12.027232 -13.122671 8.440617 -8.010976 0.132857 -9.423693 -10.600682 -18.869357 11.544259 32.869155 9.031820 4.848560 -17.327660 -6.892694 -0.604579 1.116135 3.010634 0.695784 0.418748 12.209094 -10.838464 -0.282936 -3.174542 2.898610 0.668910 -0.430000 0.136470 0.065930 5.517067 11.178971 6.839135 -4.276101 12.286542 -1.856796 -17.130875 -7.220054 0.082429 3.116525 -1.320167 -0.343150 0.233260 -0.414790 -0.230660 
-14.752230 16.909560 2.011450 -2.747516 26.251262 -1.179676 -14.912721 12.009440 3.572137 11.572463 -0.834898 -28.759195 -1.552941 2.366972 -3.364856 -0.800239 2.279239 3.607018 0.786390 0.687690 0.752970 18.635764 -10.439240 3.449919 2.459321 -3.449408 5.054134 10.751638 -4.225931 -2.325849 -0.775184 -4.376498 2.722085 0.517690 -0.265390 -0.317690 -5.000841 -0.660603 -8.336855 25.460490 2.193385 12.287909 -12.751260 8.315498 -8.551983 0.236270 -9.114132 -10.456474 -18.125745 10.999537 32.889269 9.145120 4.568950 -17.767130 -6.947922 -0.282916 0.921951 2.739738 0.696139 0.406968 13.133024 -12.104942 -0.319825 -3.153704 2.919615 0.673650 -0.437440 0.147550 0.069640 5.336230 10.746013 6.778633 -4.334805 12.083771 -1.733333 -16.567770 -6.816616 0.021781 3.114402 -1.316228 -0.331600 0.223180 -0.430090 -0.229570 
-14.739980 16.911920 2.019090 -2.920541 26.336881 -1.224402 -14.921375 12.010125 3.601912 11.898378 -0.791071 -28.733515 -1.936696 2.403198 -3.389884 -0.776203 2.332354 3.557564 0.791920 0.687630 0.735500 18.625035 -10.413454 3.450250 2.433508 -3.446470 5.124153 10.819269 -4.228284 -2.399714 -0.784405 -4.397819 2.690904 0.508610 -0.279560 -0.272680 -4.973097 -0.711237 -8.361345 25.572998 2.181639 12.324741 -12.672305 8.308808 -8.810165 0.253570 -8.961804 -10.489409 -17.777709 10.871522 33.035704 9.187050 4.417240 -17.421550 -6.412306 -0.118270 0.889213 2.397116 -0.073597 0.413368 12.755046 -10.736515 -0.310991 -3.196211 2.972147 0.654200 -0.435290 0.152220 0.065440 4.776383 10.568578 6.828311 -4.021138 12.198105 -1.474832 -15.677066 -6.292803 -0.068630 3.105986 -1.330806 -0.289630 0.173560 -0.409010 -0.223480 
-14.734200 16.915550 2.025450 -3.176648 26.437729 -1.572910 -14.949531 12.102053 3.630365 12.146050 -0.711118 -28.659760 -1.890099 2.417384 -3.311532 -0.767893 2.422197 3.451122 0.758970 0.613990 0.663600 18.585374 -10.358613 3.462849 2.848327 -3.583242 5.347547 10.513175 -4.283547 -2.359265 -0.797914 -4.400968 2.620654 0.450440 -0.285100 -0.157340 -4.882914 -0.950342 -8.403028 25.538864 2.168843 12.863233 -12.212992 8.472384 -9.675002 0.058155 -8.901698 -10.801745 -17.967689 11.605132 34.078589 10.509140 4.338750 -16.809590 -5.549808 -0.149824 1.088803 1.208895 -1.107974 0.500308 12.458061 -9.065759 -0.412113 -3.290012 3.089252 0.652570 -0.437800 0.158750 0.038340 4.455926 10.636476 6.981330 -3.563737 12.025534 -1.392231 -15.252792 -5.601120 -0.036705 3.077558 -1.337800 -0.221320 0.077830 -0.302090 -0.219340 
-14.727360 16.915990 2.026790 -3.113364 26.348052 -1.461583 -14.929800 12.074094 3.604495 11.979187 -0.794458 -28.689384 -1.686333 2.377811 -3.096346 -0.823185 2.433580 3.391763 0.780750 0.595130 0.656490 18.607826 -10.417972 3.438701 2.819285 -3.495881 5.038587 10.292059 -4.353545 -1.787563 -0.791418 -4.401858 2.556927 0.449140 -0.289070 -0.101360 -4.943370 -0.805059 -8.351774 25.607412 2.139820 12.614112 -12.573415 8.487581 -9.598699 -0.358624 -8.828698 -10.512885 -17.602088 12.169734 33.538654 12.095580 4.247950 -16.679680 -5.386138 -0.323908 1.072532 1.813031 -2.317181 0.608280 11.971135 -6.029011 -0.509560 -3.352134 3.186114 0.659830 -0.454380 0.145150 0.025580 5.050757 10.505078 6.685637 -4.262111 12.303469 -1.556417 -15.744548 -5.741431 -0.021517 3.060243 -1.385318 -0.197990 0.026830 -0.243630 -0.226810 
-14.717960 16.919950 2.027730 -2.965229 26.301649 -1.484268 -14.914321 12.067523 3.563150 11.704704 -0.866146 -28.435225 -1.417972 2.319158 -3.068777 -0.829929 2.402089 3.376903 0.794810 0.602720 0.654960 18.624218 -10.454973 3.431089 2.539730 -3.409104 5.014506 10.346870 -4.400731 -1.593927 -0.807756 -4.417995 2.520299 0.447300 -0.305250 -0.064340 -4.991201 -0.723861 -8.313066 25.770835 1.920627 12.489766 -13.111084 8.319072 -9.217899 -0.416897 -8.856288 -10.464619 -17.670407 12.353898 33.596302 12.656410 4.217650 -17.161410 -5.303116 -0.468168 1.134088 2.147895 -2.687470 0.577637 12.229573 -4.336189 -0.544964 -3.378741 3.222207 0.664410 -0.469030 0.164310 0.021430 5.036090 10.509921 6.584943 -4.618075 12.667283 -1.484529 -15.015709 -5.484202 -0.078959 3.059020 -1.382081 -0.168940 -0.002470 -0.226750 -0.221530 
-14.715790 16.924920 2.027770 -2.525476 25.966125 -1.538072 -14.912567 12.128342 3.560007 11.551959 -0.860642 -27.962711 -1.433658 2.304604 -3.148273 -0.820099 2.408137 3.375944 0.773410 0.588710 0.635680 18.605549 -10.489414 3.425488 2.007708 -3.280608 5.032569 10.233188 -4.484060 -1.200268 -0.810705 -4.418515 2.531411 0.435120 -0.305800 -0.046820 -4.970588 -0.758705 -8.330335 25.310089 1.874493 12.955572 -13.303524 8.324848 -9.562759 -0.308625 -8.721936 -10.620152 -17.624764 12.627125 34.755071 12.434650 4.646410 -17.293740 -5.768863 -0.928426 1.215524 3.449534 -2.254997 0.530548 11.497432 -3.428542 -0.538057 -3.407326 3.173732 0.674140 -0.457640 0.183330 0.017040 5.299043 10.925141 6.618024 -4.729099 13.109710 -1.538646 -14.873436 -5.912433 0.000613 3.054454 -1.351775 -0.164350 -0.002630 -0.214450 -0.223910 
-14.706310 16.931840 2.033130 -2.415894 25.937144 -1.438033 -14.895380 12.084550 3.554090 11.356901 -0.940212 -27.571952 -1.465922 2.229504 -3.624015 -0.821909 2.401505 3.357606 0.799790 0.616130 0.649480 18.627181 -10.516953 3.414923 1.953266 -3.252633 4.955808 10.027622 -4.469062 -1.152670 -0.825041 -4.409017 2.506502 0.448210 -0.328360 -0.026440 -5.024709 -0.642426 -8.310250 25.374434 1.880553 12.768270 -13.613819 8.265073 -9.517762 -0.506209 -8.735329 -10.325369 -17.604602 12.965269 34.807740 12.985040 4.846580 -17.882030 -5.754712 -0.714109 1.123318 3.443908 -2.473971 0.544059 11.958287 -3.533960 -0.556569 -3.391161 3.221862 0.680510 -0.476420 0.204370 0.015080 5.551792 10.606610 6.271021 -4.592182 13.820131 -1.530674 -14.968211 -6.227707 0.032498 3.064599 -1.365902 -0.143000 -0.022770 -0.214830 -0.221720 
-14.694820 16.931160 2.029450 -2.762857 25.889137 -1.587420 -14.891425 12.053985 3.563647 11.788584 -0.824079 -27.725355 -1.791213 2.307099 -3.500965 -0.812048 2.450153 3.354614 0.791720 0.605680 0.653030 18.640286 -10.509921 3.397567 2.245365 -3.318502 4.908486 9.842479 -4.478060 -0.961735 -0.820477 -4.390400 2.529094 0.440750 -0.318420 -0.036080 -5.042706 -0.616123 -8.295983 25.945474 1.814139 12.668909 -13.799035 8.311768 -8.887738 -0.275114 -8.786137 -10.421477 -17.705461 12.834434 34.687564 12.610020 4.829840 -17.871120 -5.995025 -0.796696 1.223890 3.379290 -1.512297 0.547034 12.468212 -5.160842 -0.547563 -3.363846 3.213900 0.683760 -0.468830 0.200170 0.017940 5.329977 10.723194 6.352101 -4.591569 13.744120 -1.579257 -15.018189 -6.396901 0.049690 3.067102 -1.357664 -0.153710 -0.007480 -0.221690 -0.224680 
-14.677550 16.929790 2.035570 -2.692131 25.998371 -1.332067 -14.878403 11.988390 3.566103 11.613795 -0.939756 -27.761592 -2.037256 2.280480 -3.624188 -0.849533 2.469923 3.339291 0.807700 0.603470 0.662920 18.662481 -10.534603 3.386652 2.207581 -3.294087 4.833383 9.568827 -4.431880 -1.061787 -0.811797 -4.404785 2.504799 0.454210 -0.306680 -0.029570 -5.091816 -0.478722 -8.271016 25.928446 1.920858 12.216728 -13.776623 8.215747 -8.798202 -0.509072 -8.719615 -9.928269 -17.241586 12.960665 33.896477 12.871760 4.842830 -17.571040 -6.248922 -0.576795 1.025185 3.822842 -1.514847 0.661164 12.383712 -5.893711 -0.587221 -3.355088 3.276190 0.681660 -0.466220 0.178480 0.019370 5.907023 10.332581 5.915169 -5.007218 14.311415 -1.685520 -15.418536 -6.588727 0.023425 3.055662 -1.394817 -0.163750 -0.012120 -0.208440 -0.231050 
